<svg viewBox="0 0 500 500" xmlns="http://www.w3.org/2000/svg"><path d="M50.1 317.3V110c0-8.3 6.8-15 15-15h371.7c8.3 0 15 6.8 15 15v207.3" fill="#FFF" stroke="#000" stroke-miterlimit="10" stroke-width="22"/><path d="M465.6 387.1h-431c-8.2 0-15-6.8-15-15v-6.4c0-8.3 6.8-15 15-15h431c8.3 0 15 6.8 15 15v6.4c0 8.2-6.7 15-15 15z"/><path d="M248.7 101.7c-2.6 0-4.7-2.1-4.7-4.7s2.1-4.7 4.7-4.7 4.7 2.1 4.7 4.7c-.1 2.6-2.2 4.7-4.7 4.7z" fill="#FFF"/><path d="M479.1 359.3l-458.4.8 18.5-43.5h423.6z"/><path d="M281.8 376.2h-61.6c-5.7 0-10.3-4.6-10.3-10.3v-4.1c0-5.7 4.6-10.3 10.3-10.3h61.6c5.7 0 10.3 4.6 10.3 10.3v4.1c0 5.7-4.6 10.3-10.3 10.3z" fill="#FFF"/></svg>