<svg xmlns="http://www.w3.org/2000/svg" height="512" width="512"><path d="M388 101v40h124v-40H388zM0 151v228h368V151H0zm388 0v40h124v-40H388zM24 175h320v180H24V175zm364 26v40h124v-40H388zm0 50v160h124V251H388zm47 90h30v30h-30v-30zm-331 46l-16 16v8h192v-8l-16-16H104z" style="marker:none" color="#000" overflow="visible" font-size="550" font-weight="400" letter-spacing="0" word-spacing="0" fill="#222" font-family="Ubuntu"/><path d="M388.145 121.07v-19.62h123.412v39.24H388.145v-19.62zm0 49.997v-19.619h123.412v39.239H388.145v-19.62zm0 49.998v-19.62h123.412v39.24H388.145v-19.62zm0 110.121v-79.743h123.412V410.93H388.145v-79.743zm77.212 24.682V340.68h-30.379v30.378h30.379v-15.19zM.19 265.05V151.448h367.703v227.204H.19V265.05zm344.287 0v-90.185H23.606v180.371h320.871V265.05zM88.16 406.964V403l7.762-7.743 7.762-7.744 80.367.013 80.366.013 7.753 8.162 7.753 8.162v7.067H88.16v-3.965z"/></svg>