<?xml version="1.0" encoding="UTF-8" standalone="no"?>
<svg
   xmlns:dc="http://purl.org/dc/elements/1.1/"
   xmlns:cc="http://creativecommons.org/ns#"
   xmlns:rdf="http://www.w3.org/1999/02/22-rdf-syntax-ns#"
   xmlns:svg="http://www.w3.org/2000/svg"
   xmlns="http://www.w3.org/2000/svg"
   xmlns:sodipodi="http://sodipodi.sourceforge.net/DTD/sodipodi-0.dtd"
   xmlns:inkscape="http://www.inkscape.org/namespaces/inkscape"
   height="512"
   id="svg2"
   version="1.1"
   width="512"
   inkscape:version="0.91 r13725"
   sodipodi:docname="pc.svg">
  <metadata
     id="metadata3350">
    <rdf:RDF>
      <cc:Work
         rdf:about="">
        <dc:format>image/svg+xml</dc:format>
        <dc:type
           rdf:resource="http://purl.org/dc/dcmitype/StillImage" />
      </cc:Work>
    </rdf:RDF>
  </metadata>
  <sodipodi:namedview
     pagecolor="#ffffff"
     bordercolor="#666666"
     borderopacity="1"
     objecttolerance="10"
     gridtolerance="10"
     guidetolerance="10"
     inkscape:pageopacity="0"
     inkscape:pageshadow="2"
     inkscape:window-width="1920"
     inkscape:window-height="1005"
     id="namedview3348"
     showgrid="false"
     inkscape:zoom="1.5800781"
     inkscape:cx="256"
     inkscape:cy="256"
     inkscape:window-x="-9"
     inkscape:window-y="-9"
     inkscape:window-maximized="1"
     inkscape:current-layer="svg2" />
  <defs
     id="defs4" />
  <g
     id="layer1"
     transform="translate(0,-540.36218)">
    <g
       id="g4305">
      <g
         id="g4345"
         transform="translate(28,-40.00001)">
        <g
           id="text2994"
           style="font-size:550px;font-style:normal;font-variant:normal;font-weight:normal;font-stretch:normal;text-align:start;line-height:125%;letter-spacing:0px;word-spacing:0px;writing-mode:lr-tb;text-anchor:start;fill:#222222;fill-opacity:1;stroke:none;font-family:Ubuntu;-inkscape-font-specification:Ubuntu">
          <g
             id="g3830"
             transform="translate(0,15.24359)">
            <g
               id="g3838">
              <g
                 id="g3785">
                <path
                   d="m 360,666.1186 0,40 124,0 0,-40 -124,0 z m -388,50 0,228 368,0 0,-228 -368,0 z m 388,0 0,40 124,0 0,-40 -124,0 z m -364,24 320,0 0,180 -320,0 0,-180 z m 364,26 0,40 124,0 0,-40 -124,0 z m 0,50 0,160 124,0 0,-160 -124,0 z m 47,90 30,0 0,5 0,25 -30,0 0,-25 0,-5 z m -331,46 -16,16 0,8 192,0 0,-8 -16,-16 -160,0 z"
                   id="rect3909"
                   style="color:#000000;fill:#222222;fill-opacity:1;fill-rule:nonzero;stroke:none;stroke-width:10;marker:none;visibility:visible;display:inline;overflow:visible;enable-background:accumulate" />
              </g>
            </g>
          </g>
          <g
             id="layer1-4"
             transform="translate(539.77941,-13.359245)">
            <g
               id="layer1-5"
               transform="translate(-573.14286,170.28574)" />
          </g>
        </g>
      </g>
    </g>
  </g>
  <path
     style="fill:#000000"
     d="m 388.14536,121.06996 0,-19.61928 61.70581,0 61.70581,0 0,19.61928 0,19.61929 -61.70581,0 -61.70581,0 0,-19.61929 z"
     id="path3352"
     inkscape:connector-curvature="0" />
  <path
     style="fill:#000000"
     d="m 388.14536,171.06749 0,-19.61928 61.70581,0 61.70581,0 0,19.61928 0,19.61928 -61.70581,0 -61.70581,0 0,-19.61928 z"
     id="path3354"
     inkscape:connector-curvature="0" />
  <path
     style="fill:#000000"
     d="m 388.14536,221.06502 0,-19.61928 61.70581,0 61.70581,0 0,19.61928 0,19.61928 -61.70581,0 -61.70581,0 0,-19.61928 z"
     id="path3356"
     inkscape:connector-curvature="0" />
  <path
     style="fill:#000000"
     d="m 388.14536,331.18616 0,-79.7429 61.70581,0 61.70581,0 0,79.7429 0,79.74289 -61.70581,0 -61.70581,0 0,-79.74289 z m 77.21138,24.68232 0,-15.18912 -15.18913,0 -15.18912,0 0,15.18912 0,15.18912 15.18912,0 15.18913,0 0,-15.18912 z"
     id="path3358"
     inkscape:connector-curvature="0" />
  <path
     style="fill:#000000"
     d="m 0.18986403,265.05019 0,-113.60198 183.85166597,0 183.85167,0 0,113.60198 0,113.60197 -183.85167,0 -183.85166597,0 0,-113.60197 z m 344.28677597,0 0,-90.18542 -160.43511,0 -160.435102,0 0,90.18542 0,90.18541 160.435102,0 160.43511,0 0,-90.18541 z"
     id="path3360"
     inkscape:connector-curvature="0" />
  <path
     style="fill:#000000"
     d="m 88.160198,406.96405 0,-3.965 7.76192,-7.74328 7.761922,-7.74329 80.36663,0.0126 80.36664,0.0126 7.75278,8.16231 7.75278,8.16232 0,3.53336 0,3.53337 -95.88134,0 -95.881332,0 0,-3.965 z"
     id="path3362"
     inkscape:connector-curvature="0" />
</svg>
