<svg version="1" xmlns="http://www.w3.org/2000/svg" width="693.333" height="720" viewBox="0 0 520.000000 540.000000"><path d="M78.2 13.1c-5.1 2.6-8.6 6.9-10 12.4-.6 2.2-2.7 24.1-4.8 48.7l-3.9 44.7-18.2.3c-19.9.3-20.8.6-25.7 7.2-2.1 2.7-2.1 3.1-2.4 144.3L13 412.2l2.2 3.9c1.4 2.5 3.7 4.6 6.3 5.9 4.1 2 5.7 2 236.3 1.8l232.1-.3 2.7-2.1c1.5-1.1 3.7-3.3 4.8-4.8 2.1-2.7 2.1-2.9 2.1-144.4 0-140.4 0-141.7-2-145.2-2.7-4.6-9.4-8-15.9-8h-4.9l.6-7.3c.3-3.9 1.3-16.7 2.3-28.3 1.5-17.2 1.6-21.9.6-25.2-1.5-4.9-5.3-9.7-9.4-11.8-2.2-1.1-50.5-5.8-190.1-18.5C177.7 18.6 91 11 88 11c-3.6 0-7 .7-9.8 2.1zM280 46.9c144.8 13.2 149.5 13.7 149.2 15.6-2 11.2 3.1 20.6 13.8 25.4 2.5 1.1 6.4 2.1 8.7 2.1 2.3 0 4.4.3 4.6.7.2.5-.2 6.6-.9 13.8-.7 7.1-1.3 13.3-1.3 13.7-.1.5-26.2.8-58 .8h-58l-3.1-6.3c-9.4-18.4-27.3-32.5-49.5-38.9-11.7-3.4-29.4-3.1-41.8.6-22.6 6.7-39.5 20-47.9 37.5l-3.3 7H137l-55.6.1 2.8-30.3c1.5-16.6 2.7-30.4 2.8-30.5 0-.2 2.2-.1 4.9.3 11.6 1.6 23.6-5.7 26.7-16.1.8-3 1.2-5.9.9-6.4-1.7-2.7.4-3.9 5.7-3.3 2.9.3 72.6 6.7 154.8 14.2zm-3.2 32.6c.2.2-.3 2.7-1.1 5.7l-1.4 5.5 5.8 1.8c10.5 3.1 21.1 13.7 22.5 22.4l.7 4.1h-19.1l-2.2-5.5c-1.8-4.5-3.1-6-6.1-7.5-2.1-1.1-4-2-4.3-2-.2 0-1 3.4-1.7 7.5l-1.2 7.5h-3.8c-4.8 0-4.8.2-1.4-14.8.7-2.7-1-2.8-8.3-.7-6.8 2-9 5.1-7.1 9.8.7 1.7 2 3.7 2.9 4.4 1.2 1-1 1.2-10.9 1.3h-12.4l.6-7.4c.8-10.7 3.5-15 12.3-19.5 5.2-2.7 15.5-4.4 21.6-3.6l4.6.7 1.3-5.6 1.2-5.6 3.6.6c2 .4 3.7.8 3.9.9zm-225 55.2c.3 2.2 0 2.3-7.2 2.3-5 0-7.6.4-7.6 1.1 0 .8-.5.8-1.5-.1-.8-.7-1.5-1.8-1.5-2.6 0-2.4 3.4-3.4 10.5-3.1 6.4.2 7 .4 7.3 2.4zm33 0c.3 2.3.1 2.3-9.7 2.3-10 0-11.8-.6-10.7-3.6.5-1.2 2.4-1.4 10.3-1.2 9.3.3 9.8.4 10.1 2.5zm32.9-1.6c.6.6.9 1.8.6 2.5-.4 1.1-2.9 1.4-10.3 1.4-9.9 0-11.7-.6-10.6-3.5.7-1.9 18.5-2.2 20.3-.4zm33 0c.6.6.9 1.8.6 2.5-.4 1.1-2.9 1.4-10.3 1.4-9.9 0-11.7-.6-10.6-3.5.7-1.9 18.5-2.2 20.3-.4zm33 0c.6.6.9 1.8.6 2.5-.4 1.1-2.9 1.4-10.3 1.4-9.9 0-11.7-.6-10.6-3.5.7-1.9 18.5-2.2 20.3-.4zm32.8 1.4c0 1.8-.8 2-8.9 2.3-9.1.3-11.3-.4-10.2-3.3.5-1.3 2.1-1.5 9.8-1.3 8.5.3 9.3.5 9.3 2.3zm34 0c0 1.8-.8 2-9.9 2.3-10.4.3-12.9-.5-10.6-3.3 1.1-1.3 3.1-1.5 10.9-1.3 8.8.3 9.6.5 9.6 2.3zm32.4-1.2c2.1 2.6-.9 3.7-10.6 3.7-9.3 0-9.3 0-9.3-2.5s0-2.5 9.4-2.5c6.5 0 9.7.4 10.5 1.3zm33.6 1.2c0 1.8-.8 2-9.4 2.3-9.9.3-13.2-.7-11-3.5.9-1 3.5-1.3 10.8-1.1 8.8.3 9.6.5 9.6 2.3zm32.5-1c2.2 2.7 0 3.5-10 3.5-9.9 0-11.7-.6-10.6-3.5.8-2.1 18.8-2.1 20.6 0zm32.5 1c0 1.8-.8 2-8.9 2.3-9.1.3-11.3-.4-10.2-3.3.5-1.3 2.1-1.5 9.8-1.3 8.5.3 9.3.5 9.3 2.3zm34 0c0 1.8-.8 2-9.9 2.3-10.2.3-12.8-.6-10.4-3.6.8-.9 3.7-1.2 10.7-1 8.8.3 9.6.5 9.6 2.3zm32.4-1.2c2.1 2.6-.9 3.7-10.6 3.7-8.4 0-9.3-.2-9.3-1.8 0-1 .3-2.2.7-2.5 1.3-1.3 18-.8 19.2.6zm29.5 0c1.6 1.2 1.7 1.7.6 3.8-.8 1.4-1.5 1.9-1.8 1.1-.2-.8-2.7-1.2-7.7-1.2-7.4 0-9.8-1.3-7.2-3.9 1.6-1.6 13.9-1.4 16.1.2zm-447.2 7.9c.3.7.2 4.7-.1 8.8-.6 6.9-.8 7.5-3 7.8-2.3.4-2.3.3-2-7.8.3-5.8.8-8.4 1.9-9 2-1.3 2.7-1.2 3.2.2zm457 1.2c.4.6.8 4.4.8 8.4 0 7-.1 7.3-2.2 7-2.1-.3-2.4-1-3-7.8-.4-4.1-.5-8.1-.3-8.7.5-1.4 3.5-.6 4.7 1.1zM29.5 179c0 9.1-.1 9.5-2.2 9.8-2.2.3-2.3.1-2.3-9.1 0-9.7.4-11 3-10.5 1.2.3 1.5 2 1.5 9.8zm458 0c0 8.8-.1 9.5-2 9.5-1.8 0-2-.8-2.3-8.4-.3-9.6.1-11.4 2.5-10.9 1.6.3 1.8 1.6 1.8 9.8zM29.8 209.4c.3 9-.6 12-3.4 10.9-1.1-.4-1.4-2.7-1.4-9.7 0-9.6.4-10.9 3-10.4 1.2.3 1.6 2.1 1.8 9.2zm458 0c.3 9.3-.8 12.7-3.4 10.5-1-.8-1.4-3.7-1.4-9.9 0-9 .4-10.3 3-9.8 1.2.3 1.6 2.1 1.8 9.2zm-458 31c.3 9-.6 12-3.4 10.9-1.1-.4-1.4-2.7-1.4-9.7 0-9.6.4-10.9 3-10.4 1.2.3 1.6 2.1 1.8 9.2zm368.7 12c6.9 4.1 10.5 10.7 10.5 19.1 0 9.2-4.3 16-12.5 20.1-10.9 5.3-22.2 1.4-27.7-9.5-6.4-12.5-.9-27.3 11.7-32 4.6-1.7 13-.6 18 2.3zM29.8 271.8l.3 9.2h-2.6c-2.5 0-2.5 0-2.5-8.8 0-9.2.4-10.5 3-10 1.2.3 1.6 2.2 1.8 9.6zm0 31.6c-.3 8.3-.5 9.1-2.3 9.1-1.8 0-2-.8-2.3-9.4-.3-9.7.6-12.3 3.6-9.9.9.8 1.2 3.6 1 10.2zm-1.4 20.2c2.2.9 2.3 17.5.1 19.4-2.7 2.2-3.5 0-3.5-9.4 0-10.4.3-11.2 3.4-10zm459.4 9.4c.3 9.6-.3 11.5-3.1 10.4-1.4-.5-1.7-2.2-1.7-9.9 0-9.1.6-10.8 3.5-10.1.6.2 1.1 4.5 1.3 9.6zm-458 30.4c.3 9-.6 12-3.4 10.9-1.1-.4-1.4-2.7-1.4-9.7 0-9.6.4-10.9 3-10.4 1.2.3 1.6 2.1 1.8 9.2zm458 .5c.2 6.8-.1 9.7-1 10.2-2.7 1.7-3.8-1.2-3.8-10.1 0-9 .4-10.3 3-9.8 1.2.3 1.6 2.2 1.8 9.7zM29.5 386.2c.2.7.5 4.6.8 8.6.4 5.9.2 7.5-1.1 7.9-2.6 1.1-4.2-2.6-4.2-9.7 0-3.7.3-7 .7-7.3 1.1-1.1 3.3-.8 3.8.5zm458.3 6c.3 7.5-.9 10.8-3.8 10.8-1.8 0-1.9-.5-1.4-7.8.7-9.6 1-10.4 3.1-10 1.5.3 1.9 1.6 2.1 7zm-437 14.3c.6.3 1.2 1.4 1.2 2.5 0 1.8-.6 2-7.4 2-4.1 0-8.1-.3-9-.6-1.5-.6-2.2-3.5-1.1-4.5.5-.5 14.4 0 16.3.6zm427.2 2.9c-1.7 2.2-16.5 2.3-17.3.2-1-2.4 1.6-3.5 8.8-3.8 7.8-.3 10.8.9 8.5 3.6zm-393.2-.7c.3 2.3.1 2.3-9.7 2.3-10.2 0-12.4-.8-10-3.6.9-1.1 3.2-1.4 10.3-1.2 8.6.3 9.1.4 9.4 2.5zm32.9-1.6c.6.6.9 1.8.6 2.5-.4 1.1-2.9 1.4-10.3 1.4-10 0-12.2-.8-10-3.5 1.5-1.8 18-2.1 19.7-.4zm31.7-.5c.9.3 1.6 1.5 1.6 2.5 0 1.7-.9 1.9-9.9 1.9-10.1 0-12.4-.8-10.1-3.5.9-1.1 3.4-1.5 9-1.5 4.3 0 8.5.3 9.4.6zm34.6.9c2.3 2.7 0 3.5-10.6 3.5-9.6 0-10.4-.2-10.4-1.9 0-2.6 1.1-2.9 11.1-3 6.4-.1 9 .3 9.9 1.4zm31.4-.9c.9.3 1.6 1.5 1.6 2.5 0 1.7-.9 1.9-10 1.9-9.2 0-10-.2-10-1.9 0-1.1.6-2.2 1.3-2.4 1.8-.8 15.2-.8 17.1-.1zm34 0c.9.3 1.6 1.5 1.6 2.5 0 1.7-.9 1.9-10.4 1.9-10.6 0-12.9-.8-10.6-3.5.9-1.1 3.5-1.5 9.5-1.5 4.6 0 9 .3 9.9.6zm33.6.9c2.3 2.7 0 3.5-10.1 3.5-8.9 0-9.9-.2-9.9-1.8 0-2.9.8-3.2 10-3.2 6.5 0 9.1.4 10 1.5zm32.4-.9c.9.3 1.6 1.5 1.6 2.5 0 1.7-.9 1.9-10.4 1.9-10.6 0-12.9-.8-10.6-3.5.9-1.1 3.5-1.5 9.5-1.5 4.6 0 9 .3 9.9.6zm33.6.9c2.3 2.7 0 3.5-10.6 3.5-9.6 0-10.4-.2-10.4-1.9 0-2.6 1.1-2.9 11.1-3 6.4-.1 9 .3 9.9 1.4zm31.4-.9c.9.3 1.6 1.5 1.6 2.5 0 1.7-.9 1.9-10 1.9-9.2 0-10-.2-10-1.9 0-1.1.6-2.2 1.3-2.4 1.8-.8 15.2-.8 17.1-.1zm34 0c.9.3 1.6 1.5 1.6 2.5 0 1.7-.9 1.9-10.4 1.9-10.6 0-12.9-.8-10.6-3.5.9-1.1 3.5-1.5 9.5-1.5 4.6 0 9 .3 9.9.6zm33.6.9c2.3 2.7 0 3.5-10.1 3.5-9.1 0-9.9-.2-9.9-1.9 0-2.6 1.2-2.9 10.6-3 6-.1 8.5.3 9.4 1.4zm-437 87V530h499v-71H11v35.5zm14-27v5.5H14v-11h11v5.5zm13 0v5.5H27v-11h11v5.5zm42 0v5.5H69v-11h11v5.5zm13 0v5.5H83v-11h10v5.5zm14 0v5.5H97v-11h10v5.5zm28 0v5.5h-11v-11h11v5.5zm27 0v5.5h-10v-11h10v5.5zm14 0v5.5h-10v-11h10v5.5zm55 0v5.5h-11v-11h11v5.5zm14 0v5.5h-10v-11h10v5.5zm14 0v5.5h-11v-11h11v5.5zm28 0v5.5h-11v-11h11v5.5zm13 0v5.5h-11v-11h11v5.5zm14 0v5.5h-10v-11h10v5.5zm28 0v5.5h-11v-11h11v5.5zm14 0v5.5h-11v-11h11v5.5zm13 0v5.5h-11v-11h11v5.5zm42 0v5.5h-11v-11h11v5.5zm13 0v5.5h-10v-11h10v5.5zm14 0v5.5h-10v-11h10v5.5zm55 0v5.5h-11v-11h11v5.5zm14 0v5.5h-11v-11h11v5.5zm-482 14v5.5H14v-11h11v5.5zm27 0v5.5H41v-11h11v5.5zm14 0v5.5H55v-11h11v5.5zm27 0v5.5h-5c-5 0-5 0-5-3.3 0-1.7-.3-4.2-.6-5.5-.6-2.1-.4-2.2 5-2.2H93v5.5zm14 0v5.5H97v-11h10v5.5zm28 0v5.5h-11v-11h11v5.5zm27 0v5.5h-10v-11h10v5.5zm14 0v5.5h-10v-11h10v5.5zm28 0v5.5h-11v-11h11v5.5zm14 0v5.5h-11v-11h11v5.5zm13 0v5.5h-11v-11h11v5.5zm14 0v5.5h-10v-11h10v5.5zm55 0v5.5h-11v-11h11v5.5zm14 0v5.5h-10v-11h10v5.5zm14 0v5.5h-11v-11h11v5.5zm14 0v5.5h-11v-11h11v5.5zm14 0v5.5h-11v-11h11v5.5zm27 0v5.5h-11v-11h11v5.5zm14 0v5.5h-11v-11h11v5.5zm27 0v5.5h-5c-5 0-5 0-5-3.3 0-1.7-.3-4.2-.6-5.5-.6-2.1-.4-2.2 5-2.2h5.6v5.5zm14 0v5.5h-10v-11h10v5.5zm28 0v5.5h-11v-11h11v5.5zm14 0v5.5h-11v-11h11v5.5zm27 0v5.5h-11v-11h11v5.5zm-482 14v5.5H14v-11h11v5.5zm68 0v5.5H83v-11h10v5.5zm14 0v5.5H97v-11h10v5.5zm28-.5v5h-11v-10h11v5zm27 .5v5.5h-10v-11h10v5.5zm14 0v5.5h-10v-11h10v5.5zm28-.5v5h-11v-10h11v5zm14 .5v5.5h-11v-11h11v5.5zm13 0v5.5h-11v-11h11v5.5zm14 0v5.5h-10v-11h10v5.5zm14 0v5.5h-11v-11h11v5.5zm28 0v5.5h-11v-11h11v5.5zm13 0v5.5h-11v-11h11v5.5zm14 0v5.5h-10v-11h10v5.5zm28-.5v5h-11v-10h11v5zm14 .5v5.5h-11v-11h11v5.5zm27-.5v5h-11v-10h11v5zm14 .5v5.5h-11v-11h11v5.5zm27 0v5.5h-10v-11h10v5.5zm14 0v5.5h-10v-11h10v5.5zm28-.5v5h-11v-10h11v5zm14 .5v5.5h-11v-11h11v5.5zm27 0v5.5h-11v-11h11v5.5zm-372 13v5.5h-11v-11h11v5.5zm69 0v5.5h-11v-11h11v5.5zm138 0v5.5h-11v-11h11v5.5zm41 0v5.5h-11v-11h11v5.5zm83 0v5.5h-11v-11h11v5.5zM25 509v5H14v-10h11v5zm27 0v5H41v-10h11v5zm14 0v5H55v-10h11v5zm27 0v5H83v-10h10v5zm14 0v5H97v-10h10v5zm55 0v5h-10v-10h10v5zm14 0v5h-10v-10h10v5zm42 0v5h-11v-10h11v5zm13 0v5h-11v-10h11v5zm14 0v5h-10v-10h10v5zm14 0v5h-11v-10h11v5zm28 0v5h-11v-10h11v5zm13 0v5h-11v-10h11v5zm14 0v5h-10v-10h10v5zm42 0v5h-11v-10h11v5zm41 0v5h-11v-10h11v5zm27 0v5h-10v-10h10v5zm14 0v5h-10v-10h10v5zm42 0v5h-11v-10h11v5zm27 0v5h-11v-10h11v5zM25 522.5v5.5H14v-11h11v5.5zm27 0v5.5H41v-11h11v5.5zm14 0v5.5H55v-11h11v5.5zm27 0v5.5H83v-11h10v5.5zm14 0v5.5H97v-11h10v5.5zm55 0v5.5h-10v-11h10v5.5zm14 0v5.5h-10v-11h10v5.5zm55 0v5.5h-11v-11h11v5.5zm14 0v5.5h-10v-11h10v5.5zm14 0v5.5h-11v-11h11v5.5zm41 0v5.5h-11v-11h11v5.5zm14 0v5.5h-10v-11h10v5.5zm28 0v5.5h-11v-11h11v5.5zm14 0v5.5h-11v-11h11v5.5zm13 0v5.5h-11v-11h11v5.5zm42 0v5.5h-11v-11h11v5.5zm13 0v5.5h-10v-11h10v5.5zm14 0v5.5h-10v-11h10v5.5zm28 0v5.5h-11v-11h11v5.5zm14 0v5.5h-11v-11h11v5.5zm27 0v5.5h-11v-11h11v5.5z"/></svg>