<?xml version="1.0" standalone="no"?>
<!DOCTYPE svg PUBLIC "-//W3C//DTD SVG 20010904//EN"
 "http://www.w3.org/TR/2001/REC-SVG-20010904/DTD/svg10.dtd">
<svg version="1.0" xmlns="http://www.w3.org/2000/svg"
 width="520.000000pt" height="540.000000pt" viewBox="0 0 520.000000 540.000000"
 preserveAspectRatio="xMidYMid meet">

<g transform="translate(0.000000,540.000000) scale(0.100000,-0.100000)"
fill="#000000" stroke="none">
<path d="M782 5269 c-51 -26 -86 -69 -100 -124 -6 -22 -27 -241 -48 -487 l-39
-447 -182 -3 c-199 -3 -208 -6 -257 -72 -21 -27 -21 -31 -24 -1443 l-2 -1415
22 -39 c14 -25 37 -46 63 -59 41 -20 57 -20 2363 -18 l2321 3 27 21 c15 11 37
33 48 48 21 27 21 29 21 1444 0 1404 0 1417 -20 1452 -27 46 -94 80 -159 80
l-49 0 6 73 c3 39 13 167 23 283 15 172 16 219 6 252 -15 49 -53 97 -94 118
-22 11 -505 58 -1901 185 -1030 93 -1897 169 -1927 169 -36 0 -70 -7 -98 -21z
m2018 -338 c1448 -132 1495 -137 1492 -156 -20 -112 31 -206 138 -254 25 -11
64 -21 87 -21 23 0 44 -3 46 -7 2 -5 -2 -66 -9 -138 -7 -71 -13 -133 -13 -137
-1 -5 -262 -8 -580 -8 l-580 0 -31 63 c-94 184 -273 325 -495 389 -117 34
-294 31 -418 -6 -226 -67 -395 -200 -479 -375 l-33 -70 -555 0 -556 -1 28 303
c15 166 27 304 28 305 0 2 22 1 49 -3 116 -16 236 57 267 161 8 30 12 59 9 64
-17 27 4 39 57 33 29 -3 726 -67 1548 -142z m-32 -326 c2 -2 -3 -27 -11 -57
l-14 -55 58 -18 c105 -31 211 -137 225 -224 l7 -41 -96 0 -95 0 -22 55 c-18
45 -31 60 -61 75 -21 11 -40 20 -43 20 -2 0 -10 -34 -17 -75 l-12 -75 -38 0
c-48 0 -48 -2 -14 148 7 27 -10 28 -83 7 -68 -20 -90 -51 -71 -98 7 -17 20
-37 29 -44 12 -10 -10 -12 -109 -13 l-124 0 6 74 c8 107 35 150 123 195 52 27
155 44 216 36 l46 -7 13 56 12 56 36 -6 c20 -4 37 -8 39 -9z m-2250 -552 c3
-22 0 -23 -72 -23 -50 0 -76 -4 -76 -11 0 -8 -5 -8 -15 1 -8 7 -15 18 -15 26
0 24 34 34 105 31 64 -2 70 -4 73 -24z m330 0 c3 -23 1 -23 -97 -23 -100 0
-118 6 -107 36 5 12 24 14 103 12 93 -3 98 -4 101 -25z m329 16 c6 -6 9 -18 6
-25 -4 -11 -29 -14 -103 -14 -99 0 -117 6 -106 35 7 19 185 22 203 4z m330 0
c6 -6 9 -18 6 -25 -4 -11 -29 -14 -103 -14 -99 0 -117 6 -106 35 7 19 185 22
203 4z m330 0 c6 -6 9 -18 6 -25 -4 -11 -29 -14 -103 -14 -99 0 -117 6 -106
35 7 19 185 22 203 4z m328 -14 c0 -18 -8 -20 -89 -23 -91 -3 -113 4 -102 33
5 13 21 15 98 13 85 -3 93 -5 93 -23z m340 0 c0 -18 -8 -20 -99 -23 -104 -3
-129 5 -106 33 11 13 31 15 109 13 88 -3 96 -5 96 -23z m324 12 c21 -26 -9
-37 -106 -37 -93 0 -93 0 -93 25 0 25 0 25 94 25 65 0 97 -4 105 -13z m336
-12 c0 -18 -8 -20 -94 -23 -99 -3 -132 7 -110 35 9 10 35 13 108 11 88 -3 96
-5 96 -23z m325 10 c22 -27 0 -35 -100 -35 -99 0 -117 6 -106 35 8 21 188 21
206 0z m325 -10 c0 -18 -8 -20 -89 -23 -91 -3 -113 4 -102 33 5 13 21 15 98
13 85 -3 93 -5 93 -23z m340 0 c0 -18 -8 -20 -99 -23 -102 -3 -128 6 -104 36
8 9 37 12 107 10 88 -3 96 -5 96 -23z m324 12 c21 -26 -9 -37 -106 -37 -84 0
-93 2 -93 18 0 10 3 22 7 25 13 13 180 8 192 -6z m295 0 c16 -12 17 -17 6 -38
-8 -14 -15 -19 -18 -11 -2 8 -27 12 -77 12 -74 0 -98 13 -72 39 16 16 139 14
161 -2z m-4472 -79 c3 -7 2 -47 -1 -88 -6 -69 -8 -75 -30 -78 -23 -4 -23 -3
-20 78 3 58 8 84 19 90 20 13 27 12 32 -2z m4570 -12 c4 -6 8 -44 8 -84 0 -70
-1 -73 -22 -70 -21 3 -24 10 -30 78 -4 41 -5 81 -3 87 5 14 35 6 47 -11z
m-4577 -366 c0 -91 -1 -95 -22 -98 -22 -3 -23 -1 -23 91 0 97 4 110 30 105 12
-3 15 -20 15 -98z m4580 0 c0 -88 -1 -95 -20 -95 -18 0 -20 8 -23 84 -3 96 1
114 25 109 16 -3 18 -16 18 -98z m-4577 -304 c3 -90 -6 -120 -34 -109 -11 4
-14 27 -14 97 0 96 4 109 30 104 12 -3 16 -21 18 -92z m4580 0 c3 -93 -8 -127
-34 -105 -10 8 -14 37 -14 99 0 90 4 103 30 98 12 -3 16 -21 18 -92z m-4580
-310 c3 -90 -6 -120 -34 -109 -11 4 -14 27 -14 97 0 96 4 109 30 104 12 -3 16
-21 18 -92z m3687 -120 c69 -41 105 -107 105 -191 0 -92 -43 -160 -125 -201
-109 -53 -222 -14 -277 95 -64 125 -9 273 117 320 46 17 130 6 180 -23z
m-3687 -194 l3 -92 -26 0 c-25 0 -25 0 -25 88 0 92 4 105 30 100 12 -3 16 -22
18 -96z m0 -316 c-3 -83 -5 -91 -23 -91 -18 0 -20 8 -23 94 -3 97 6 123 36 99
9 -8 12 -36 10 -102z m-14 -202 c22 -9 23 -175 1 -194 -27 -22 -35 0 -35 94 0
104 3 112 34 100z m4594 -94 c3 -96 -3 -115 -31 -104 -14 5 -17 22 -17 99 0
91 6 108 35 101 6 -2 11 -45 13 -96z m-4580 -304 c3 -90 -6 -120 -34 -109 -11
4 -14 27 -14 97 0 96 4 109 30 104 12 -3 16 -21 18 -92z m4580 -5 c2 -68 -1
-97 -10 -102 -27 -17 -38 12 -38 101 0 90 4 103 30 98 12 -3 16 -22 18 -97z
m-4583 -223 c2 -7 5 -46 8 -86 4 -59 2 -75 -11 -79 -26 -11 -42 26 -42 97 0
37 3 70 7 73 11 11 33 8 38 -5z m4583 -60 c3 -75 -9 -108 -38 -108 -18 0 -19
5 -14 78 7 96 10 104 31 100 15 -3 19 -16 21 -70z m-4370 -143 c6 -3 12 -14
12 -25 0 -18 -6 -20 -74 -20 -41 0 -81 3 -90 6 -15 6 -22 35 -11 45 5 5 144 0
163 -6z m4272 -29 c-17 -22 -165 -23 -173 -2 -10 24 16 35 88 38 78 3 108 -9
85 -36z m-3932 7 c3 -23 1 -23 -97 -23 -102 0 -124 8 -100 36 9 11 32 14 103
12 86 -3 91 -4 94 -25z m329 16 c6 -6 9 -18 6 -25 -4 -11 -29 -14 -103 -14
-100 0 -122 8 -100 35 15 18 180 21 197 4z m317 5 c9 -3 16 -15 16 -25 0 -17
-9 -19 -99 -19 -101 0 -124 8 -101 35 9 11 34 15 90 15 43 0 85 -3 94 -6z
m346 -9 c23 -27 0 -35 -106 -35 -96 0 -104 2 -104 19 0 26 11 29 111 30 64 1
90 -3 99 -14z m314 9 c9 -3 16 -15 16 -25 0 -17 -9 -19 -100 -19 -92 0 -100 2
-100 19 0 11 6 22 13 24 18 8 152 8 171 1z m340 0 c9 -3 16 -15 16 -25 0 -17
-9 -19 -104 -19 -106 0 -129 8 -106 35 9 11 35 15 95 15 46 0 90 -3 99 -6z
m336 -9 c23 -27 0 -35 -101 -35 -89 0 -99 2 -99 18 0 29 8 32 100 32 65 0 91
-4 100 -15z m324 9 c9 -3 16 -15 16 -25 0 -17 -9 -19 -104 -19 -106 0 -129 8
-106 35 9 11 35 15 95 15 46 0 90 -3 99 -6z m336 -9 c23 -27 0 -35 -106 -35
-96 0 -104 2 -104 19 0 26 11 29 111 30 64 1 90 -3 99 -14z m314 9 c9 -3 16
-15 16 -25 0 -17 -9 -19 -100 -19 -92 0 -100 2 -100 19 0 11 6 22 13 24 18 8
152 8 171 1z m340 0 c9 -3 16 -15 16 -25 0 -17 -9 -19 -104 -19 -106 0 -129 8
-106 35 9 11 35 15 95 15 46 0 90 -3 99 -6z m336 -9 c23 -27 0 -35 -101 -35
-91 0 -99 2 -99 19 0 26 12 29 106 30 60 1 85 -3 94 -14z"/>
<path d="M110 455 l0 -355 2495 0 2495 0 0 355 0 355 -2495 0 -2495 0 0 -355z
m140 270 l0 -55 -55 0 -55 0 0 55 0 55 55 0 55 0 0 -55z m130 0 l0 -55 -55 0
-55 0 0 55 0 55 55 0 55 0 0 -55z m420 0 l0 -55 -55 0 -55 0 0 55 0 55 55 0
55 0 0 -55z m130 0 l0 -55 -50 0 -50 0 0 55 0 55 50 0 50 0 0 -55z m140 0 l0
-55 -50 0 -50 0 0 55 0 55 50 0 50 0 0 -55z m280 0 l0 -55 -55 0 -55 0 0 55 0
55 55 0 55 0 0 -55z m270 0 l0 -55 -50 0 -50 0 0 55 0 55 50 0 50 0 0 -55z
m140 0 l0 -55 -50 0 -50 0 0 55 0 55 50 0 50 0 0 -55z m550 0 l0 -55 -55 0
-55 0 0 55 0 55 55 0 55 0 0 -55z m140 0 l0 -55 -50 0 -50 0 0 55 0 55 50 0
50 0 0 -55z m140 0 l0 -55 -55 0 -55 0 0 55 0 55 55 0 55 0 0 -55z m280 0 l0
-55 -55 0 -55 0 0 55 0 55 55 0 55 0 0 -55z m130 0 l0 -55 -55 0 -55 0 0 55 0
55 55 0 55 0 0 -55z m140 0 l0 -55 -50 0 -50 0 0 55 0 55 50 0 50 0 0 -55z
m280 0 l0 -55 -55 0 -55 0 0 55 0 55 55 0 55 0 0 -55z m140 0 l0 -55 -55 0
-55 0 0 55 0 55 55 0 55 0 0 -55z m130 0 l0 -55 -55 0 -55 0 0 55 0 55 55 0
55 0 0 -55z m420 0 l0 -55 -55 0 -55 0 0 55 0 55 55 0 55 0 0 -55z m130 0 l0
-55 -50 0 -50 0 0 55 0 55 50 0 50 0 0 -55z m140 0 l0 -55 -50 0 -50 0 0 55 0
55 50 0 50 0 0 -55z m550 0 l0 -55 -55 0 -55 0 0 55 0 55 55 0 55 0 0 -55z
m140 0 l0 -55 -55 0 -55 0 0 55 0 55 55 0 55 0 0 -55z m-4820 -140 l0 -55 -55
0 -55 0 0 55 0 55 55 0 55 0 0 -55z m270 0 l0 -55 -55 0 -55 0 0 55 0 55 55 0
55 0 0 -55z m140 0 l0 -55 -55 0 -55 0 0 55 0 55 55 0 55 0 0 -55z m270 0 l0
-55 -50 0 c-50 0 -50 0 -50 33 0 17 -3 42 -6 55 -6 21 -4 22 50 22 l56 0 0
-55z m140 0 l0 -55 -50 0 -50 0 0 55 0 55 50 0 50 0 0 -55z m280 0 l0 -55 -55
0 -55 0 0 55 0 55 55 0 55 0 0 -55z m270 0 l0 -55 -50 0 -50 0 0 55 0 55 50 0
50 0 0 -55z m140 0 l0 -55 -50 0 -50 0 0 55 0 55 50 0 50 0 0 -55z m280 0 l0
-55 -55 0 -55 0 0 55 0 55 55 0 55 0 0 -55z m140 0 l0 -55 -55 0 -55 0 0 55 0
55 55 0 55 0 0 -55z m130 0 l0 -55 -55 0 -55 0 0 55 0 55 55 0 55 0 0 -55z
m140 0 l0 -55 -50 0 -50 0 0 55 0 55 50 0 50 0 0 -55z m550 0 l0 -55 -55 0
-55 0 0 55 0 55 55 0 55 0 0 -55z m140 0 l0 -55 -50 0 -50 0 0 55 0 55 50 0
50 0 0 -55z m140 0 l0 -55 -55 0 -55 0 0 55 0 55 55 0 55 0 0 -55z m140 0 l0
-55 -55 0 -55 0 0 55 0 55 55 0 55 0 0 -55z m140 0 l0 -55 -55 0 -55 0 0 55 0
55 55 0 55 0 0 -55z m270 0 l0 -55 -55 0 -55 0 0 55 0 55 55 0 55 0 0 -55z
m140 0 l0 -55 -55 0 -55 0 0 55 0 55 55 0 55 0 0 -55z m270 0 l0 -55 -50 0
c-50 0 -50 0 -50 33 0 17 -3 42 -6 55 -6 21 -4 22 50 22 l56 0 0 -55z m140 0
l0 -55 -50 0 -50 0 0 55 0 55 50 0 50 0 0 -55z m280 0 l0 -55 -55 0 -55 0 0
55 0 55 55 0 55 0 0 -55z m140 0 l0 -55 -55 0 -55 0 0 55 0 55 55 0 55 0 0
-55z m270 0 l0 -55 -55 0 -55 0 0 55 0 55 55 0 55 0 0 -55z m-4820 -140 l0
-55 -55 0 -55 0 0 55 0 55 55 0 55 0 0 -55z m680 0 l0 -55 -50 0 -50 0 0 55 0
55 50 0 50 0 0 -55z m140 0 l0 -55 -50 0 -50 0 0 55 0 55 50 0 50 0 0 -55z
m280 5 l0 -50 -55 0 -55 0 0 50 0 50 55 0 55 0 0 -50z m270 -5 l0 -55 -50 0
-50 0 0 55 0 55 50 0 50 0 0 -55z m140 0 l0 -55 -50 0 -50 0 0 55 0 55 50 0
50 0 0 -55z m280 5 l0 -50 -55 0 -55 0 0 50 0 50 55 0 55 0 0 -50z m140 -5 l0
-55 -55 0 -55 0 0 55 0 55 55 0 55 0 0 -55z m130 0 l0 -55 -55 0 -55 0 0 55 0
55 55 0 55 0 0 -55z m140 0 l0 -55 -50 0 -50 0 0 55 0 55 50 0 50 0 0 -55z
m140 0 l0 -55 -55 0 -55 0 0 55 0 55 55 0 55 0 0 -55z m280 0 l0 -55 -55 0
-55 0 0 55 0 55 55 0 55 0 0 -55z m130 0 l0 -55 -55 0 -55 0 0 55 0 55 55 0
55 0 0 -55z m140 0 l0 -55 -50 0 -50 0 0 55 0 55 50 0 50 0 0 -55z m280 5 l0
-50 -55 0 -55 0 0 50 0 50 55 0 55 0 0 -50z m140 -5 l0 -55 -55 0 -55 0 0 55
0 55 55 0 55 0 0 -55z m270 5 l0 -50 -55 0 -55 0 0 50 0 50 55 0 55 0 0 -50z
m140 -5 l0 -55 -55 0 -55 0 0 55 0 55 55 0 55 0 0 -55z m270 0 l0 -55 -50 0
-50 0 0 55 0 55 50 0 50 0 0 -55z m140 0 l0 -55 -50 0 -50 0 0 55 0 55 50 0
50 0 0 -55z m280 5 l0 -50 -55 0 -55 0 0 50 0 50 55 0 55 0 0 -50z m140 -5 l0
-55 -55 0 -55 0 0 55 0 55 55 0 55 0 0 -55z m270 0 l0 -55 -55 0 -55 0 0 55 0
55 55 0 55 0 0 -55z m-3720 -130 l0 -55 -55 0 -55 0 0 55 0 55 55 0 55 0 0
-55z m690 0 l0 -55 -55 0 -55 0 0 55 0 55 55 0 55 0 0 -55z m1380 0 l0 -55
-55 0 -55 0 0 55 0 55 55 0 55 0 0 -55z m410 0 l0 -55 -55 0 -55 0 0 55 0 55
55 0 55 0 0 -55z m830 0 l0 -55 -55 0 -55 0 0 55 0 55 55 0 55 0 0 -55z
m-4410 -5 l0 -50 -55 0 -55 0 0 50 0 50 55 0 55 0 0 -50z m270 0 l0 -50 -55 0
-55 0 0 50 0 50 55 0 55 0 0 -50z m140 0 l0 -50 -55 0 -55 0 0 50 0 50 55 0
55 0 0 -50z m270 0 l0 -50 -50 0 -50 0 0 50 0 50 50 0 50 0 0 -50z m140 0 l0
-50 -50 0 -50 0 0 50 0 50 50 0 50 0 0 -50z m550 0 l0 -50 -50 0 -50 0 0 50 0
50 50 0 50 0 0 -50z m140 0 l0 -50 -50 0 -50 0 0 50 0 50 50 0 50 0 0 -50z
m420 0 l0 -50 -55 0 -55 0 0 50 0 50 55 0 55 0 0 -50z m130 0 l0 -50 -55 0
-55 0 0 50 0 50 55 0 55 0 0 -50z m140 0 l0 -50 -50 0 -50 0 0 50 0 50 50 0
50 0 0 -50z m140 0 l0 -50 -55 0 -55 0 0 50 0 50 55 0 55 0 0 -50z m280 0 l0
-50 -55 0 -55 0 0 50 0 50 55 0 55 0 0 -50z m130 0 l0 -50 -55 0 -55 0 0 50 0
50 55 0 55 0 0 -50z m140 0 l0 -50 -50 0 -50 0 0 50 0 50 50 0 50 0 0 -50z
m420 0 l0 -50 -55 0 -55 0 0 50 0 50 55 0 55 0 0 -50z m410 0 l0 -50 -55 0
-55 0 0 50 0 50 55 0 55 0 0 -50z m270 0 l0 -50 -50 0 -50 0 0 50 0 50 50 0
50 0 0 -50z m140 0 l0 -50 -50 0 -50 0 0 50 0 50 50 0 50 0 0 -50z m420 0 l0
-50 -55 0 -55 0 0 50 0 50 55 0 55 0 0 -50z m270 0 l0 -50 -55 0 -55 0 0 50 0
50 55 0 55 0 0 -50z m-4820 -135 l0 -55 -55 0 -55 0 0 55 0 55 55 0 55 0 0
-55z m270 0 l0 -55 -55 0 -55 0 0 55 0 55 55 0 55 0 0 -55z m140 0 l0 -55 -55
0 -55 0 0 55 0 55 55 0 55 0 0 -55z m270 0 l0 -55 -50 0 -50 0 0 55 0 55 50 0
50 0 0 -55z m140 0 l0 -55 -50 0 -50 0 0 55 0 55 50 0 50 0 0 -55z m550 0 l0
-55 -50 0 -50 0 0 55 0 55 50 0 50 0 0 -55z m140 0 l0 -55 -50 0 -50 0 0 55 0
55 50 0 50 0 0 -55z m550 0 l0 -55 -55 0 -55 0 0 55 0 55 55 0 55 0 0 -55z
m140 0 l0 -55 -50 0 -50 0 0 55 0 55 50 0 50 0 0 -55z m140 0 l0 -55 -55 0
-55 0 0 55 0 55 55 0 55 0 0 -55z m410 0 l0 -55 -55 0 -55 0 0 55 0 55 55 0
55 0 0 -55z m140 0 l0 -55 -50 0 -50 0 0 55 0 55 50 0 50 0 0 -55z m280 0 l0
-55 -55 0 -55 0 0 55 0 55 55 0 55 0 0 -55z m140 0 l0 -55 -55 0 -55 0 0 55 0
55 55 0 55 0 0 -55z m130 0 l0 -55 -55 0 -55 0 0 55 0 55 55 0 55 0 0 -55z
m420 0 l0 -55 -55 0 -55 0 0 55 0 55 55 0 55 0 0 -55z m130 0 l0 -55 -50 0
-50 0 0 55 0 55 50 0 50 0 0 -55z m140 0 l0 -55 -50 0 -50 0 0 55 0 55 50 0
50 0 0 -55z m280 0 l0 -55 -55 0 -55 0 0 55 0 55 55 0 55 0 0 -55z m140 0 l0
-55 -55 0 -55 0 0 55 0 55 55 0 55 0 0 -55z m270 0 l0 -55 -55 0 -55 0 0 55 0
55 55 0 55 0 0 -55z"/>
</g>
</svg>
